<?xml version="1.0" encoding="UTF-8" standalone="no"?>
<!-- Created with Inkscape (http://www.inkscape.org/) -->

<svg
   xmlns:dc="http://purl.org/dc/elements/1.1/"
   xmlns:cc="http://creativecommons.org/ns#"
   xmlns:rdf="http://www.w3.org/1999/02/22-rdf-syntax-ns#"
   xmlns:svg="http://www.w3.org/2000/svg"
   xmlns="http://www.w3.org/2000/svg"
   xmlns:xlink="http://www.w3.org/1999/xlink"
   xmlns:sodipodi="http://sodipodi.sourceforge.net/DTD/sodipodi-0.dtd"
   xmlns:inkscape="http://www.inkscape.org/namespaces/inkscape"
   width="210mm"
   height="297mm"
   id="svg2"
   version="1.1"
   inkscape:version="0.48.2 r9819"
   sodipodi:docname="icons.svg"
   inkscape:export-filename="/Users/miho/EigeneApps/VRL-Documentation/resources/img/construction-site-01.png"
   inkscape:export-xdpi="20.401215"
   inkscape:export-ydpi="20.401215">
  <defs
     id="defs4">
    <linearGradient
       id="linearGradient3825">
      <stop
         style="stop-color:#ffffa0;stop-opacity:1;"
         offset="0"
         id="stop3827" />
      <stop
         style="stop-color:#ffff00;stop-opacity:1;"
         offset="1"
         id="stop3829" />
    </linearGradient>
    <linearGradient
       id="linearGradient3793">
      <stop
         style="stop-color:#ffffff;stop-opacity:1;"
         offset="0"
         id="stop3795" />
      <stop
         style="stop-color:#ffffff;stop-opacity:0;"
         offset="1"
         id="stop3797" />
    </linearGradient>
    <linearGradient
       id="linearGradient3774">
      <stop
         style="stop-color:#e50000;stop-opacity:1;"
         offset="0"
         id="stop3776" />
      <stop
         style="stop-color:#ffffff;stop-opacity:1;"
         offset="1"
         id="stop3778" />
    </linearGradient>
    <linearGradient
       inkscape:collect="always"
       xlink:href="#linearGradient3774"
       id="linearGradient3784"
       x1="20.972239"
       y1="477.69702"
       x2="12.005375"
       y2="173.64113"
       gradientUnits="userSpaceOnUse"
       gradientTransform="translate(-96.98991,-258.62407)" />
    <linearGradient
       inkscape:collect="always"
       xlink:href="#linearGradient3793"
       id="linearGradient3799"
       x1="281.65463"
       y1="553.19757"
       x2="362.5462"
       y2="746.13666"
       gradientUnits="userSpaceOnUse"
       gradientTransform="translate(-429.31483,-579.97792)" />
    <filter
       inkscape:collect="always"
       id="filter3813">
      <feGaussianBlur
         inkscape:collect="always"
         stdDeviation="1.9054182"
         id="feGaussianBlur3815" />
    </filter>
    <radialGradient
       inkscape:collect="always"
       xlink:href="#linearGradient3825"
       id="radialGradient3831"
       cx="211.125"
       cy="150.13005"
       fx="211.125"
       fy="150.13005"
       r="150.06991"
       gradientTransform="matrix(1,0,0,0.88086742,0,17.88538)"
       gradientUnits="userSpaceOnUse" />
    <filter
       inkscape:collect="always"
       id="filter3872"
       x="-0.23770213"
       width="1.4754043"
       y="-0.042425316"
       height="1.0848506">
      <feGaussianBlur
         inkscape:collect="always"
         stdDeviation="2.1436413"
         id="feGaussianBlur3874" />
    </filter>
    <filter
       inkscape:collect="always"
       id="filter3956">
      <feGaussianBlur
         inkscape:collect="always"
         stdDeviation="0.22163794"
         id="feGaussianBlur3958" />
    </filter>
    <radialGradient
       inkscape:collect="always"
       xlink:href="#linearGradient3825"
       id="radialGradient4158"
       gradientUnits="userSpaceOnUse"
       gradientTransform="matrix(1,0,0,0.88086742,0,17.88538)"
       cx="211.125"
       cy="150.13005"
       fx="211.125"
       fy="150.13005"
       r="150.06991" />
    <linearGradient
       inkscape:collect="always"
       xlink:href="#linearGradient3774"
       id="linearGradient4160"
       gradientUnits="userSpaceOnUse"
       gradientTransform="translate(630.33435,-178.95029)"
       x1="20.972239"
       y1="477.69702"
       x2="12.005375"
       y2="173.64113" />
    <linearGradient
       inkscape:collect="always"
       xlink:href="#linearGradient3793"
       id="linearGradient4162"
       gradientUnits="userSpaceOnUse"
       gradientTransform="translate(298.00943,-500.30414)"
       x1="281.65463"
       y1="553.19757"
       x2="362.5462"
       y2="746.13666" />
    <radialGradient
       inkscape:collect="always"
       xlink:href="#linearGradient3825"
       id="radialGradient4225"
       gradientUnits="userSpaceOnUse"
       gradientTransform="matrix(1,0,0,0.88086742,0,17.88538)"
       cx="211.125"
       cy="150.13005"
       fx="211.125"
       fy="150.13005"
       r="150.06991" />
    <linearGradient
       inkscape:collect="always"
       xlink:href="#linearGradient3774"
       id="linearGradient4227"
       gradientUnits="userSpaceOnUse"
       gradientTransform="translate(968.90578,-9.80743)"
       x1="20.972239"
       y1="477.69702"
       x2="12.005375"
       y2="173.64113" />
    <linearGradient
       inkscape:collect="always"
       xlink:href="#linearGradient3793"
       id="linearGradient4229"
       gradientUnits="userSpaceOnUse"
       gradientTransform="translate(636.58086,-331.16128)"
       x1="281.65463"
       y1="553.19757"
       x2="362.5462"
       y2="746.13666" />
    <filter
       inkscape:collect="always"
       id="filter4243">
      <feGaussianBlur
         inkscape:collect="always"
         stdDeviation="4.1914591"
         id="feGaussianBlur4245" />
    </filter>
    <radialGradient
       inkscape:collect="always"
       xlink:href="#linearGradient3825"
       id="radialGradient4306"
       gradientUnits="userSpaceOnUse"
       gradientTransform="matrix(1,0,0,0.88086742,0,17.88538)"
       cx="211.125"
       cy="150.13005"
       fx="211.125"
       fy="150.13005"
       r="150.06991" />
    <linearGradient
       inkscape:collect="always"
       xlink:href="#linearGradient3774"
       id="linearGradient4308"
       gradientUnits="userSpaceOnUse"
       gradientTransform="translate(968.90578,-9.80743)"
       x1="20.972239"
       y1="477.69702"
       x2="12.005375"
       y2="173.64113" />
    <linearGradient
       inkscape:collect="always"
       xlink:href="#linearGradient3793"
       id="linearGradient4310"
       gradientUnits="userSpaceOnUse"
       gradientTransform="translate(636.58086,-331.16128)"
       x1="281.65463"
       y1="553.19757"
       x2="362.5462"
       y2="746.13666" />
    <radialGradient
       inkscape:collect="always"
       xlink:href="#linearGradient3825"
       id="radialGradient4321"
       gradientUnits="userSpaceOnUse"
       gradientTransform="matrix(1,0,0,0.88086742,0,17.88538)"
       cx="211.125"
       cy="150.13005"
       fx="211.125"
       fy="150.13005"
       r="150.06991" />
    <linearGradient
       inkscape:collect="always"
       xlink:href="#linearGradient3774"
       id="linearGradient4323"
       gradientUnits="userSpaceOnUse"
       gradientTransform="translate(968.90578,-9.80743)"
       x1="20.972239"
       y1="477.69702"
       x2="12.005375"
       y2="173.64113" />
    <linearGradient
       inkscape:collect="always"
       xlink:href="#linearGradient3793"
       id="linearGradient4325"
       gradientUnits="userSpaceOnUse"
       gradientTransform="translate(636.58086,-331.16128)"
       x1="281.65463"
       y1="553.19757"
       x2="362.5462"
       y2="746.13666" />
  </defs>
  <sodipodi:namedview
     id="base"
     pagecolor="#ffffff"
     bordercolor="#666666"
     borderopacity="1.0"
     inkscape:pageopacity="0.0"
     inkscape:pageshadow="2"
     inkscape:zoom="0.24748737"
     inkscape:cx="681.91218"
     inkscape:cy="784.66654"
     inkscape:document-units="px"
     inkscape:current-layer="layer1"
     showgrid="false"
     inkscape:window-width="1481"
     inkscape:window-height="945"
     inkscape:window-x="0"
     inkscape:window-y="0"
     inkscape:window-maximized="0" />
  <metadata
     id="metadata7">
    <rdf:RDF>
      <cc:Work
         rdf:about="">
        <dc:format>image/svg+xml</dc:format>
        <dc:type
           rdf:resource="http://purl.org/dc/dcmitype/StillImage" />
        <dc:title></dc:title>
      </cc:Work>
    </rdf:RDF>
  </metadata>
  <g
     inkscape:label="Ebene 1"
     inkscape:groupmode="layer"
     id="layer1">
    <path
       sodipodi:type="inkscape:offset"
       inkscape:radius="15.168625"
       inkscape:original="M 211.125 34.53125 L 77.625 265.75 L 344.625 265.75 L 211.125 34.53125 z "
       style="fill:url(#radialGradient3831);fill-opacity:1;stroke:#000000;stroke-width:2.83100009;stroke-linecap:round;stroke-linejoin:round;stroke-miterlimit:4;stroke-opacity:1;stroke-dasharray:none;stroke-dashoffset:0"
       id="path2993"
       d="M 210.3125,19.375 A 15.170142,15.170142 0 0 0 198,26.9375 L 64.5,258.15625 a 15.170142,15.170142 0 0 0 13.125,22.75 l 267,0 a 15.170142,15.170142 0 0 0 13.125,-22.75 L 224.25,26.9375 A 15.170142,15.170142 0 0 0 210.3125,19.375 z"
       transform="translate(-288.59564,-61.374922)" />
    <g
       id="g3883"
       style="font-size:274.78912354px;font-style:normal;font-weight:normal;line-height:125%;letter-spacing:0px;word-spacing:0px;fill:#000000;fill-opacity:1;stroke:none;filter:url(#filter3956);font-family:Sans"
       transform="matrix(0.82201536,0,0,0.68644597,-285.71386,-372.10709)">
      <path
         style="font-variant:normal;font-stretch:normal;stroke:none;font-family:Times New Roman;-inkscape-font-specification:Times New Roman"
         d="m 260.96065,745.05698 c 0.002,4.24511 -3.48355,9.83417 -8.34266,8.15463 -5.43089,-2.2679 -5.38293,-8.82069 -6.08111,-13.81364 -3.56337,-28.29976 -7.28921,-56.58083 -10.74668,-84.89277 -0.99093,-6.21811 0.97602,-14.25965 7.73968,-16.26382 7.86661,-2.7337 17.15823,-2.68785 24.43938,1.63251 5.56569,4.80449 4.883,12.93893 4.14883,19.52234 m -18.13294,103.21591 c 4.87353,-0.0503 8.96837,4.10071 10.93747,8.25709 1.94956,5.04313 -1.0068,10.42646 -5.25651,13.21098 -4.33598,3.66984 -10.8531,1.7545 -14.15649,-2.3745 -4.57746,-4.36494 -3.77606,-12.49159 1.42223,-16.02628 1.88918,-1.88503 4.2997,-3.27859 7.0533,-3.06729 z"
         id="path3885"
         inkscape:connector-curvature="0" />
    </g>
    <path
       style="fill:url(#linearGradient3784);fill-opacity:1;stroke:#000000;stroke-width:2.83100009;stroke-linecap:round;stroke-linejoin:round;stroke-miterlimit:4;stroke-opacity:1;stroke-dasharray:none;stroke-dashoffset:0"
       d="m -76.78314,-42.014822 a 15.170142,15.170142 0 0 0 -1.5,0.0312 15.170142,15.170142 0 0 0 -12.3125,7.5625 l -133.5,231.218752 a 15.170142,15.170142 0 0 0 13.125,22.75 l 267,0 a 15.170142,15.170142 0 0 0 13.125,-22.75 l -133.5,-231.218752 a 15.170142,15.170142 0 0 0 -12.4375,-7.59375 z m -0.375,47.6249995 c 0.0134,-0.0214 0.15771,0.0299 0.0625,0.0625 0.0816,0.0359 0.23663,0.0998 0.625,0.1875 0.37691,0.0851 0.53894,0.0918 0.625,0.0937 -0.0683,-0.0667 0.0178,-0.0282 0.0625,0 -0.007,2.8e-4 -0.0541,1.9e-4 -0.0625,0 0.0526,0.0513 0.22083,0.1414 0.59375,0.34375 0.37292,0.20235 0.52252,0.2954 0.59375,0.3125 -0.005,-0.008 -0.0276,-0.0562 -0.0312,-0.0625 0.049,0.0235 0.12029,0.0839 0.0312,0.0625 0.0493,0.0727 0.13236,0.20205 0.40625,0.46875 0.30397,0.296 0.46666,0.40276 0.53125,0.4375 -0.003,-0.009 -0.0294,-0.0555 -0.0312,-0.0625 0.0397,0.0377 0.11199,0.10593 0.0312,0.0625 0.0284,0.0826 0.0903,0.23183 0.28125,0.5625 L 28.59186,184.82888 c 0.18027,0.31253 0.28827,0.40523 0.34375,0.46875 -0.003,-0.13819 0.13122,0.16042 0.0312,0.0625 0.007,0.0834 0.0317,0.21384 0.125,0.5625 0.0948,0.35417 0.15271,0.48792 0.1875,0.5625 0.0278,0.0266 0.061,0.1307 0,0 -0.0262,-0.0251 -0.0625,0.0507 -0.0625,0.65625 -2e-5,0.40368 0.0121,0.59044 0.0312,0.65625 0.0824,-0.17547 0.0404,0.13856 0,0 -0.035,0.0746 -0.0628,0.2137 -0.15625,0.5625 -0.0934,0.34865 -0.11765,0.47911 -0.125,0.5625 0.1,-0.0979 -0.0339,0.2007 -0.0312,0.0625 -0.0553,0.0631 -0.16271,0.1862 -0.34375,0.5 -0.19724,0.34189 -0.22977,0.49164 -0.25,0.5625 -0.0292,0.0364 -0.0493,0.0681 -0.0312,0 -0.0661,0.0443 -0.17185,0.14034 -0.4375,0.40625 -0.26565,0.26591 -0.36193,0.3714 -0.40625,0.4375 0.13637,-0.0361 -0.10346,0.15089 -0.0312,0.0312 -0.0756,0.024 -0.23502,0.0919 -0.5625,0.28125 -0.34946,0.20208 -0.48229,0.29383 -0.53125,0.34375 0.008,-6.7e-4 0.0562,1.2e-4 0.0625,0 -0.0257,0.0164 -0.0748,0.0359 -0.0937,0.0312 -0.0881,0.01 -0.22982,0.004 -0.5625,0.0937 -0.35252,0.0948 -0.45805,0.15267 -0.53125,0.1875 0.13168,0.0385 -0.18034,0.0659 -0.0625,0 -0.08,-0.0169 -0.22843,-0.0316 -0.59375,-0.0312 l -204.09375,0 c -0.36532,-3.8e-4 -0.51379,0.0143 -0.59375,0.0312 0.11784,0.0659 -0.19418,0.0385 -0.0625,0 -0.0732,-0.0348 -0.17873,-0.0927 -0.53125,-0.1875 -0.33268,-0.0894 -0.47443,-0.0842 -0.5625,-0.0937 -0.0189,0.005 -0.068,-0.0149 -0.0937,-0.0312 0.006,1.2e-4 0.0542,-6.7e-4 0.0625,0 -0.049,-0.0499 -0.18179,-0.14167 -0.53125,-0.34375 -0.32747,-0.18936 -0.48691,-0.25724 -0.5625,-0.28125 0.0722,0.11964 -0.16762,-0.0674 -0.0312,-0.0312 -0.0443,-0.0661 -0.1406,-0.17159 -0.40625,-0.4375 -0.26565,-0.26591 -0.37136,-0.36192 -0.4375,-0.40625 0.0181,0.0681 -0.002,0.0364 -0.0312,0 -0.002,-0.001 0.002,-0.03 0,-0.0312 -0.0243,-0.076 -0.0617,-0.2049 -0.25,-0.53125 -0.18104,-0.3138 -0.28844,-0.43694 -0.34375,-0.5 0.003,0.1382 -0.13121,-0.16042 -0.0312,-0.0625 -0.007,-0.0834 -0.0316,-0.21385 -0.125,-0.5625 -0.0934,-0.3488 -0.12126,-0.48795 -0.15625,-0.5625 -0.0404,0.13856 -0.0824,-0.17547 0,0 0.0192,-0.0658 0.0313,-0.25257 0.0312,-0.65625 -2e-5,-0.60552 -0.0363,-0.68133 -0.0625,-0.65625 -0.061,0.1307 -0.0278,0.0266 0,0 0.0348,-0.0746 0.0927,-0.20833 0.1875,-0.5625 0.0933,-0.34866 0.11765,-0.47911 0.125,-0.5625 -0.1,0.0979 0.0339,-0.20069 0.0312,-0.0625 0.0555,-0.0635 0.16348,-0.15622 0.34375,-0.46875 L -81.53294,8.0789275 c 0.17872,-0.30954 0.22668,-0.45998 0.25,-0.53125 0.01,-0.0156 0.0183,-0.0195 0.0312,-0.0312 0.0615,-0.0436 0.15892,-0.12085 0.40625,-0.375 0.26708,-0.27445 0.4043,-0.41274 0.4375,-0.46875 -0.009,0.004 -0.0555,0.0291 -0.0625,0.0312 0.0325,-0.037 0.104,-0.10126 0.0625,-0.0312 0.0746,-0.029 0.20994,-0.0718 0.5,-0.25 0.2891,-0.17757 0.3775,-0.25953 0.4375,-0.3125 -0.13021,0.007 0.15347,-0.12466 0.0625,-0.0312 0.0791,-0.0102 0.20642,-0.0236 0.53125,-0.125 0.3416,-0.10665 0.49112,-0.1818 0.5625,-0.21875 -0.0575,-0.0117 -0.003,-0.0261 0.0312,-0.0312 -0.006,0.006 0.0164,0.0222 0,0.0312 0.0644,0.0104 0.20824,0.0155 0.53125,0 0.0311,-0.002 0.003,0.002 0.0312,0 0.36364,-0.0216 0.52325,-0.0414 0.59375,-0.0625 -0.0377,-0.0178 -0.0357,-0.0554 -0.0312,-0.0625 z"
       id="path2995"
       inkscape:connector-curvature="0" />
    <path
       style="fill:url(#linearGradient3799);fill-opacity:1;stroke:none;filter:url(#filter3813)"
       d="m -78.59608,-43.415422 a 15.170142,15.170142 0 0 0 -12.3125,7.5625 L -196.75233,147.45958 c 76.06334,-10.58417 140.31905,-44.98701 190.1875003,-82.687502 l -58.0937503,-100.625 a 15.170142,15.170142 0 0 0 -13.9375,-7.5625 z"
       id="path3786"
       inkscape:connector-curvature="0" />
    <text
       sodipodi:linespacing="125%"
       id="text3840"
       y="194.12109"
       x="127.20801"
       style="font-size:274.78912354px;font-style:normal;font-weight:normal;line-height:125%;letter-spacing:0px;word-spacing:0px;fill:#000000;fill-opacity:1;stroke:none;font-family:Sans"
       xml:space="preserve"
       transform="scale(1.3050485,0.76625503)"><tspan
         style="font-style:normal;font-variant:normal;font-weight:normal;font-stretch:normal;font-family:Times New Roman;-inkscape-font-specification:Times New Roman"
         y="194.12109"
         x="127.20801"
         id="tspan3842"
         sodipodi:role="line">!</tspan></text>
    <g
       transform="matrix(0.82201536,0,0,0.68644597,-10.95237,-178.11718)"
       style="font-size:274.78912354px;font-style:normal;font-weight:normal;line-height:125%;letter-spacing:0px;word-spacing:0px;fill:#000000;fill-opacity:1;stroke:none;font-family:Sans"
       id="text3876">
      <path
         d="m 183.25112,412.2487 c -0.83502,5.91306 -4.35498,5.81202 -5.09862,0 L 166.34515,303.56745 c -0.53673,-4.74067 -0.80507,-8.27392 -0.80504,-10.59977 -3e-5,-5.63516 1.47588,-10.15236 4.42775,-13.55162 3.04125,-3.3989 6.66395,-5.09844 10.86813,-5.09862 4.20408,1.8e-4 7.73733,1.69972 10.59977,5.09862 2.95178,3.39926 4.4277,8.45316 4.42776,15.16171 -6e-5,2.14695 -0.17896,5.14351 -0.5367,8.98968 m -14.75918,130.95419 c 4.11463,3e-5 7.60316,1.47595 10.4656,4.42776 2.95178,2.8624 4.42769,6.30621 4.42775,10.33142 -6e-5,4.11469 -1.47597,7.64795 -4.42775,10.59978 -2.86244,2.86238 -6.35097,4.29358 -10.4656,4.29358 -4.11473,0 -7.64798,-1.4312 -10.59978,-4.29358 -2.86242,-2.95183 -4.29361,-6.48509 -4.29358,-10.59978 -3e-5,-4.02521 1.43116,-7.46902 4.29358,-10.33142 2.9518,-2.95181 6.48505,-4.42773 10.59978,-4.42776"
         style="font-variant:normal;font-stretch:normal;font-family:Times New Roman;-inkscape-font-specification:Times New Roman"
         id="path3881"
         inkscape:connector-curvature="0"
         sodipodi:nodetypes="cccccccccccccsccsc" />
    </g>
    <path
       transform="translate(-288.59564,-61.395222)"
       d="M 210.3125,19.375 A 15.170142,15.170142 0 0 0 198,26.9375 L 64.5,258.15625 a 15.170142,15.170142 0 0 0 13.125,22.75 l 267,0 a 15.170142,15.170142 0 0 0 13.125,-22.75 L 224.25,26.9375 A 15.170142,15.170142 0 0 0 210.3125,19.375 z"
       id="path3964"
       style="fill:none;stroke:#000000;stroke-width:2.83100009;stroke-linecap:round;stroke-linejoin:round;stroke-miterlimit:4;stroke-opacity:1;stroke-dasharray:none;stroke-dashoffset:0"
       inkscape:original="M 211.125 34.53125 L 77.625 265.75 L 344.625 265.75 L 211.125 34.53125 z "
       inkscape:radius="15.168625"
       sodipodi:type="inkscape:offset" />
    <g
       id="g4114"
       transform="translate(-90,-12.857143)">
      <path
         sodipodi:type="inkscape:offset"
         inkscape:radius="15.168625"
         inkscape:original="M 211.125 34.53125 L 77.625 265.75 L 344.625 265.75 L 211.125 34.53125 z "
         style="fill:url(#radialGradient4158);fill-opacity:1;stroke:#000000;stroke-width:2.83100009;stroke-linecap:round;stroke-linejoin:round;stroke-miterlimit:4;stroke-opacity:1;stroke-dasharray:none;stroke-dashoffset:0"
         id="path3972"
         d="M 210.3125,19.375 A 15.170142,15.170142 0 0 0 198,26.9375 L 64.5,258.15625 a 15.170142,15.170142 0 0 0 13.125,22.75 l 267,0 a 15.170142,15.170142 0 0 0 13.125,-22.75 L 224.25,26.9375 A 15.170142,15.170142 0 0 0 210.3125,19.375 z"
         transform="translate(438.72862,18.298856)" />
      <g
         id="g3974"
         style="font-size:274.78912354px;font-style:normal;font-weight:normal;line-height:125%;letter-spacing:0px;word-spacing:0px;fill:#000000;fill-opacity:1;stroke:none;filter:url(#filter3956);font-family:Sans"
         transform="matrix(0.82201536,0,0,0.68644597,441.6104,-292.43331)">
        <path
           style="font-variant:normal;font-stretch:normal;stroke:none;font-family:Times New Roman;-inkscape-font-specification:Times New Roman"
           d="m 260.96065,745.05698 c 0.002,4.24511 -3.48355,9.83417 -8.34266,8.15463 -5.43089,-2.2679 -5.38293,-8.82069 -6.08111,-13.81364 -3.56337,-28.29976 -7.28921,-56.58083 -10.74668,-84.89277 -0.99093,-6.21811 0.97602,-14.25965 7.73968,-16.26382 7.86661,-2.7337 17.15823,-2.68785 24.43938,1.63251 5.56569,4.80449 4.883,12.93893 4.14883,19.52234 m -18.13294,103.21591 c 4.87353,-0.0503 8.96837,4.10071 10.93747,8.25709 1.94956,5.04313 -1.0068,10.42646 -5.25651,13.21098 -4.33598,3.66984 -10.8531,1.7545 -14.15649,-2.3745 -4.57746,-4.36494 -3.77606,-12.49159 1.42223,-16.02628 1.88918,-1.88503 4.2997,-3.27859 7.0533,-3.06729 z"
           id="path3976"
           inkscape:connector-curvature="0" />
      </g>
      <path
         style="fill:url(#linearGradient4160);fill-opacity:1;stroke:#000000;stroke-width:2.83100009;stroke-linecap:round;stroke-linejoin:round;stroke-miterlimit:4;stroke-opacity:1;stroke-dasharray:none;stroke-dashoffset:0"
         d="m 650.54112,37.658956 a 15.170142,15.170142 0 0 0 -1.5,0.0312 15.170142,15.170142 0 0 0 -12.3125,7.5625 l -133.5,231.218754 a 15.170142,15.170142 0 0 0 13.125,22.75 l 267,0 a 15.170142,15.170142 0 0 0 13.125,-22.75 l -133.5,-231.218754 a 15.170142,15.170142 0 0 0 -12.4375,-7.59375 z m -0.375,47.625 c 0.0134,-0.0214 0.15771,0.0299 0.0625,0.0625 0.0816,0.0359 0.23663,0.0998 0.625,0.1875 0.37691,0.0851 0.53894,0.0918 0.625,0.0937 -0.0683,-0.0667 0.0178,-0.0282 0.0625,0 -0.007,2.8e-4 -0.0541,1.9e-4 -0.0625,0 0.0526,0.0513 0.22083,0.1414 0.59375,0.34375 0.37292,0.20235 0.52252,0.2954 0.59375,0.3125 -0.005,-0.008 -0.0276,-0.0562 -0.0312,-0.0625 0.049,0.0235 0.12029,0.0839 0.0312,0.0625 0.0493,0.0727 0.13236,0.20205 0.40625,0.46875 0.30397,0.296 0.46666,0.40276 0.53125,0.4375 -0.003,-0.009 -0.0294,-0.0555 -0.0312,-0.0625 0.0397,0.0377 0.11199,0.10593 0.0312,0.0625 0.0284,0.0826 0.0903,0.23183 0.28125,0.5625 L 755.91612,264.50266 c 0.18027,0.31253 0.28827,0.40523 0.34375,0.46875 -0.003,-0.13819 0.13122,0.16042 0.0312,0.0625 0.007,0.0834 0.0317,0.21384 0.125,0.5625 0.0948,0.35417 0.15271,0.48792 0.1875,0.5625 0.0278,0.0266 0.061,0.1307 0,0 -0.0262,-0.0251 -0.0625,0.0507 -0.0625,0.65625 -2e-5,0.40368 0.0121,0.59044 0.0312,0.65625 0.0824,-0.17547 0.0404,0.13856 0,0 -0.035,0.0746 -0.0628,0.2137 -0.15625,0.5625 -0.0934,0.34865 -0.11765,0.47911 -0.125,0.5625 0.1,-0.0979 -0.0339,0.2007 -0.0312,0.0625 -0.0553,0.0631 -0.16271,0.1862 -0.34375,0.5 -0.19724,0.34189 -0.22977,0.49164 -0.25,0.5625 -0.0292,0.0364 -0.0493,0.0681 -0.0312,0 -0.0661,0.0443 -0.17185,0.14034 -0.4375,0.40625 -0.26565,0.26591 -0.36193,0.3714 -0.40625,0.4375 0.13637,-0.0361 -0.10346,0.15089 -0.0312,0.0312 -0.0756,0.024 -0.23502,0.0919 -0.5625,0.28125 -0.34946,0.20208 -0.48229,0.29383 -0.53125,0.34375 0.008,-6.7e-4 0.0562,1.2e-4 0.0625,0 -0.0257,0.0164 -0.0748,0.0359 -0.0937,0.0312 -0.0881,0.01 -0.22982,0.004 -0.5625,0.0937 -0.35252,0.0948 -0.45805,0.15267 -0.53125,0.1875 0.13168,0.0385 -0.18034,0.0659 -0.0625,0 -0.08,-0.0169 -0.22843,-0.0316 -0.59375,-0.0312 l -204.09375,0 c -0.36532,-3.8e-4 -0.51379,0.0143 -0.59375,0.0312 0.11784,0.0659 -0.19418,0.0385 -0.0625,0 -0.0732,-0.0348 -0.17873,-0.0927 -0.53125,-0.1875 -0.33268,-0.0894 -0.47443,-0.0842 -0.5625,-0.0937 -0.0189,0.005 -0.068,-0.0149 -0.0937,-0.0312 0.006,1.2e-4 0.0542,-6.7e-4 0.0625,0 -0.049,-0.0499 -0.18179,-0.14167 -0.53125,-0.34375 -0.32747,-0.18936 -0.48691,-0.25724 -0.5625,-0.28125 0.0722,0.11964 -0.16762,-0.0674 -0.0312,-0.0312 -0.0443,-0.0661 -0.1406,-0.17159 -0.40625,-0.4375 -0.26565,-0.26591 -0.37136,-0.36192 -0.4375,-0.40625 0.0181,0.0681 -0.002,0.0364 -0.0312,0 -0.002,-10e-4 0.002,-0.03 0,-0.0312 -0.0243,-0.076 -0.0617,-0.2049 -0.25,-0.53125 -0.18104,-0.3138 -0.28844,-0.43694 -0.34375,-0.5 0.003,0.1382 -0.13121,-0.16042 -0.0312,-0.0625 -0.007,-0.0834 -0.0316,-0.21385 -0.125,-0.5625 -0.0934,-0.3488 -0.12126,-0.48795 -0.15625,-0.5625 -0.0404,0.13856 -0.0824,-0.17547 0,0 0.0192,-0.0658 0.0313,-0.25257 0.0312,-0.65625 -2e-5,-0.60552 -0.0363,-0.68133 -0.0625,-0.65625 -0.061,0.1307 -0.0278,0.0266 0,0 0.0348,-0.0746 0.0927,-0.20833 0.1875,-0.5625 0.0933,-0.34866 0.11765,-0.47911 0.125,-0.5625 -0.1,0.0979 0.0339,-0.20069 0.0312,-0.0625 0.0555,-0.0635 0.16348,-0.15622 0.34375,-0.46875 L 645.79132,87.752706 c 0.17872,-0.30954 0.22668,-0.45998 0.25,-0.53125 0.01,-0.0156 0.0183,-0.0195 0.0312,-0.0312 0.0615,-0.0436 0.15892,-0.12085 0.40625,-0.375 0.26708,-0.27445 0.4043,-0.41274 0.4375,-0.46875 -0.009,0.004 -0.0555,0.0291 -0.0625,0.0312 0.0325,-0.037 0.104,-0.10126 0.0625,-0.0312 0.0746,-0.029 0.20994,-0.0718 0.5,-0.25 0.2891,-0.17757 0.3775,-0.25953 0.4375,-0.3125 -0.13021,0.007 0.15347,-0.12466 0.0625,-0.0312 0.0791,-0.0102 0.20642,-0.0236 0.53125,-0.125 0.3416,-0.10665 0.49112,-0.1818 0.5625,-0.21875 -0.0575,-0.0117 -0.003,-0.0261 0.0312,-0.0312 -0.006,0.006 0.0164,0.0222 0,0.0312 0.0644,0.0104 0.20824,0.0155 0.53125,0 0.0311,-0.002 0.003,0.002 0.0312,0 0.36364,-0.0216 0.52325,-0.0414 0.59375,-0.0625 -0.0377,-0.0178 -0.0357,-0.0554 -0.0312,-0.0625 z"
         id="path3978"
         inkscape:connector-curvature="0" />
      <path
         style="fill:url(#linearGradient4162);fill-opacity:1;stroke:none;filter:url(#filter3813)"
         d="m 648.72818,36.258356 a 15.170142,15.170142 0 0 0 -12.3125,7.5625 L 530.57193,227.13336 c 76.06334,-10.58417 140.31905,-44.98701 190.1875,-82.6875 L 662.66568,43.820856 a 15.170142,15.170142 0 0 0 -13.9375,-7.5625 z"
         id="path3980"
         inkscape:connector-curvature="0" />
      <path
         transform="translate(438.72862,18.278556)"
         d="M 210.3125,19.375 A 15.170142,15.170142 0 0 0 198,26.9375 L 64.5,258.15625 a 15.170142,15.170142 0 0 0 13.125,22.75 l 267,0 a 15.170142,15.170142 0 0 0 13.125,-22.75 L 224.25,26.9375 A 15.170142,15.170142 0 0 0 210.3125,19.375 z"
         id="path3982"
         style="fill:none;stroke:#000000;stroke-width:2.83100009;stroke-linecap:round;stroke-linejoin:round;stroke-miterlimit:4;stroke-opacity:1;stroke-dasharray:none;stroke-dashoffset:0"
         inkscape:original="M 211.125 34.53125 L 77.625 265.75 L 344.625 265.75 L 211.125 34.53125 z "
         inkscape:radius="15.168625"
         sodipodi:type="inkscape:offset" />
    </g>
    <path
       sodipodi:type="arc"
       style="fill:#000000;stroke:none"
       id="path3990"
       sodipodi:cx="507.85715"
       sodipodi:cy="788.79077"
       sodipodi:rx="42.142857"
       sodipodi:ry="42.142857"
       d="m 550,788.79077 a 42.142857,42.142857 0 1 1 -84.28571,0 42.142857,42.142857 0 1 1 84.28571,0 z"
       transform="matrix(1.3835155,0,0,1.3835155,-176.58836,-312.61505)" />
    <rect
       style="fill:#000000;fill-opacity:1;fill-rule:nonzero;stroke:none"
       id="rect3992"
       width="110.0565"
       height="194.20367"
       x="716.88232"
       y="559.64569"
       transform="matrix(0.90402676,0.42747588,-0.42747588,0.90402676,0,0)"
       rx="26.267025"
       ry="26.267025" />
    <rect
       style="fill:#000000;fill-opacity:1;fill-rule:nonzero;stroke:none"
       id="rect3994"
       width="154.19437"
       height="48.711399"
       x="334.71945"
       y="809.9256"
       rx="16.530073"
       ry="16.530073" />
    <rect
       ry="10.101525"
       rx="10.101525"
       y="401.72583"
       x="-1091.6625"
       height="41.614746"
       width="237.5863"
       id="rect3996"
       style="fill:#000000;fill-opacity:1;fill-rule:nonzero;stroke:none"
       transform="matrix(-0.08168667,-0.99665806,0.99665806,-0.08168667,0,0)" />
    <rect
       ry="10.101525"
       rx="10.101525"
       y="-735.33301"
       x="534.14471"
       height="38.791992"
       width="145.59897"
       id="rect3998"
       style="fill:#000000;fill-opacity:1;fill-rule:nonzero;stroke:none"
       transform="matrix(-0.49327018,0.86987616,-0.86987616,-0.49327018,0,0)" />
    <rect
       style="fill:#000000;fill-opacity:1;fill-rule:nonzero;stroke:none"
       id="rect4002"
       width="389.8837"
       height="26.263916"
       x="658.55219"
       y="670.02313"
       rx="10.101525"
       ry="10.101525"
       transform="matrix(0.88666835,0.46240593,-0.46240593,0.88666835,0,0)" />
    <rect
       style="fill:#000000;fill-opacity:1;fill-rule:nonzero;stroke:none"
       id="rect4004"
       width="55.032501"
       height="268.68808"
       x="617.36005"
       y="821.5097"
       rx="10.101525"
       ry="10.101525"
       transform="matrix(0.95308377,0.30270667,-0.30270667,0.95308377,0,0)" />
    <rect
       style="fill:#000000;fill-opacity:1;fill-rule:nonzero;stroke:none"
       id="rect4006"
       width="58.588848"
       height="155.56349"
       x="58.919636"
       y="1078.9114"
       rx="10.101525"
       ry="10.101525"
       transform="matrix(0.95720101,-0.28942395,0.28942395,0.95720101,0,0)" />
    <rect
       style="fill:#000000;fill-opacity:1;fill-rule:nonzero;stroke:none"
       id="rect4008"
       width="58.466309"
       height="107.81149"
       x="408.95874"
       y="1132.3375"
       rx="10.101525"
       ry="10.101525" />
    <path
       style="fill:#000000;fill-opacity:1;fill-rule:nonzero;stroke:none"
       d="m 615.81393,1026.0764 84.94356,0 c 15.11982,0 19.7355,16.784 27.29208,32.8025 l 75.95042,161.0004 c 7.55653,16.0184 -12.17226,18.8023 -27.29208,18.8023 l -236.8444,0 c -15.1198,0 -34.84861,-2.7839 -27.29208,-18.8023 l 75.95041,-161.0004 c 7.55658,-16.0185 12.17228,-32.8025 27.29209,-32.8025 z"
       id="rect4010"
       inkscape:connector-curvature="0"
       sodipodi:nodetypes="sssssssss" />
    <path
       style="fill:#000000;stroke:none"
       d="M -193.1875 684.03125 C -225.38863 684.03125 -251.5 710.11137 -251.5 742.3125 C -251.5 754.12248 -247.97306 765.12974 -241.9375 774.3125 C -243.48388 773.83663 -245.13723 773.5625 -246.84375 773.5625 L -367.96875 773.5625 C -371.49978 773.5625 -374.7576 774.65937 -377.4375 776.53125 C -379.20502 777.39488 -380.73344 778.80844 -381.78125 780.65625 L -431.9375 869.125 L -436.1875 866.90625 C -441.14951 864.31851 -447.22476 866.22549 -449.8125 871.1875 L -452.59375 876.5625 C -455.18149 881.52451 -453.27451 887.59976 -448.3125 890.1875 L -444.59375 892.125 C -445.74989 896.46024 -443.93736 901.17869 -439.84375 903.5 L -423.65625 912.65625 C -419.15075 915.21113 -413.55956 913.93671 -410.5625 909.875 L -380.96875 925.3125 L -382.15625 927.84375 C -385.03166 933.92468 -385.37571 940.51125 -383.625 946.46875 L -457.78125 1179.9375 C -459.47527 1185.2712 -456.55244 1190.931 -451.21875 1192.625 L -418.03125 1203.1562 C -412.69756 1204.8503 -407.03777 1201.9274 -405.34375 1196.5938 L -343.625 1002.3125 L -310.28125 1112.5625 L -310.28125 1193.6875 C -310.28125 1199.2837 -305.7525 1203.7812 -300.15625 1203.7812 L -261.90625 1203.7812 C -256.31 1203.7812 -251.8125 1199.2837 -251.8125 1193.6875 L -251.8125 1106.0625 C -251.8125 1105.4607 -251.86879 1104.8849 -251.96875 1104.3125 C -251.98796 1103.4084 -252.09987 1102.5037 -252.375 1101.5938 L -288.34375 982.71875 C -286.39246 980.86494 -284.69139 978.70148 -283.34375 976.21875 L -230.9375 1003.5625 L -230.5 1008.75 C -230.04286 1014.3275 -225.17129 1018.4571 -219.59375 1018 L -205.5 1016.8438 L -143.34375 1049.25 L -206.65625 1183.5 C -214.21278 1199.5184 -194.4948 1202.3125 -179.375 1202.3125 L 57.46875 1202.3125 C 72.58857 1202.3125 92.33778 1199.5184 84.78125 1183.5 L 8.8125 1022.5 C 1.25592 1006.4815 -3.3489299 989.71875 -18.46875 989.71875 L -103.40625 989.71875 C -118.52606 989.71875 -123.16217 1006.4815 -130.71875 1022.5 L -132.125 1025.4688 L -189.84375 995.375 L -205.9375 799.21875 C -201.83192 800.13505 -197.56928 800.625 -193.1875 800.625 C -160.98637 800.625 -134.875 774.51363 -134.875 742.3125 C -134.875 710.11137 -160.98637 684.03125 -193.1875 684.03125 z M -360.78125 822.28125 L -332.28125 822.28125 L -369.75 901.5625 L -397.53125 887.0625 L -360.78125 822.28125 z M -240.5625 885.8125 L -233.46875 972.625 L -272.09375 952.46875 L -240.5625 885.8125 z "
       id="path4072" />
    <path
       id="path4093"
       d="m 618.70914,374.72152 c -8.7947,0 -15.92618,7.12294 -15.92618,15.91764 0,3.22551 0.96327,6.23179 2.61169,8.73977 -0.42234,-0.12997 -0.8739,-0.20484 -1.33998,-0.20484 l -33.08138,0 c -0.96439,0 -1.85416,0.29957 -2.58608,0.81081 -0.48275,0.23588 -0.90018,0.62195 -1.18636,1.12662 l -13.69856,24.16237 -1.16075,-0.60598 c -1.35521,-0.70675 -3.01447,-0.18592 -3.72123,1.16929 l -0.75961,1.46801 c -0.70675,1.35521 -0.18592,3.01447 1.16929,3.72123 l 1.01566,0.52916 c -0.31577,1.18403 0.17927,2.47272 1.29731,3.10671 l 4.42109,2.50074 c 1.23053,0.69778 2.75758,0.34971 3.57613,-0.75961 l 8.08258,4.21625 -0.32433,0.69133 c -0.78532,1.66081 -0.87929,3.45972 -0.40114,5.08682 l -20.25338,63.76444 c -0.46267,1.45673 0.33561,3.00252 1.79233,3.46518 l 9.06409,2.87626 c 1.45673,0.46269 3.00252,-0.33561 3.46518,-1.79231 l 16.85649,-53.06165 9.10676,30.11122 0,22.15667 c 0,1.52842 1.23689,2.75677 2.76532,2.75677 l 10.44675,0 c 1.52844,0 2.75678,-1.22835 2.75678,-2.75677 l 0,-23.93194 c 0,-0.16436 -0.0154,-0.32162 -0.0427,-0.47795 -0.005,-0.24693 -0.0358,-0.49402 -0.11096,-0.74253 l -9.8237,-32.46687 c 0.53293,-0.50631 0.99753,-1.09719 1.36559,-1.77527 l 14.31307,7.46806 0.11949,1.4168 c 0.12486,1.52331 1.45537,2.65118 2.97869,2.52634 l 3.84926,-0.31578 16.97597,8.85071 -17.29177,36.66604 c -2.06382,4.37491 3.32151,5.13803 7.45099,5.13803 l 64.68621,0 c 4.12949,0 9.52334,-0.76312 7.45953,-5.13803 l -20.74839,-43.97194 c -2.06385,-4.37494 -3.32153,-8.95314 -7.45101,-8.95314 l -23.19793,0 c -4.12949,0 -5.39569,4.5782 -7.45953,8.95314 l -0.38406,0.81083 -15.76402,-8.21915 -4.39548,-53.57374 c 1.1213,0.25026 2.28551,0.38407 3.48225,0.38407 8.79469,0 15.92618,-7.13147 15.92618,-15.92617 0,-8.7947 -7.13149,-15.91764 -15.92618,-15.91764 z m -45.77282,37.75852 7.78386,0 -10.23338,21.65311 -7.58755,-3.96021 10.03707,-17.6929 z m 32.83387,17.35151 1.93743,23.71002 -10.54917,-5.50502 8.61174,-18.205 z"
       style="fill:#000000;stroke:none"
       inkscape:connector-curvature="0" />
    <path
       inkscape:connector-curvature="0"
       style="fill:#000000;stroke:none"
       d="m 656.49593,587.35098 c -6.4301,0 -11.6441,5.20778 -11.6441,11.63783 0,2.35826 0.7043,4.55623 1.9095,6.38988 -0.3088,-0.095 -0.6389,-0.14976 -0.9797,-0.14976 l -24.1867,0 c -0.7051,0 -1.3556,0.21902 -1.8908,0.5928 -0.3529,0.17246 -0.6581,0.45473 -0.8673,0.82371 l -10.0154,17.66577 -0.8487,-0.44304 c -0.9908,-0.51673 -2.204,-0.13594 -2.7207,0.8549 l -0.5554,1.0733 c -0.5167,0.99083 -0.1359,2.20396 0.8549,2.72069 l 0.7426,0.38689 c -0.2308,0.86567 0.1311,1.80787 0.9485,2.2714 l 3.2324,1.82836 c 0.8997,0.51016 2.0161,0.25568 2.6146,-0.55537 l 5.9094,3.08261 -0.2371,0.50545 c -0.5742,1.21427 -0.6429,2.5295 -0.2933,3.71912 l -14.8078,46.61994 c -0.3383,1.06506 0.2454,2.19523 1.3104,2.53349 l 6.627,2.10291 c 1.0651,0.33829 2.1952,-0.24537 2.5335,-1.31041 l 12.3243,-38.79483 6.6582,22.01514 0,16.19935 c 0,1.11748 0.9043,2.01556 2.0218,2.01556 l 7.6379,0 c 1.1174,0 2.0155,-0.89808 2.0155,-2.01556 l 0,-17.4973 c 0,-0.12017 -0.011,-0.23514 -0.031,-0.34944 0,-0.18054 -0.026,-0.36119 -0.081,-0.54288 l -7.1824,-23.73743 c 0.3897,-0.37018 0.7294,-0.80219 0.9985,-1.29795 l 10.4647,5.46011 0.087,1.03586 c 0.091,1.11373 1.064,1.93835 2.1778,1.84708 l 2.8142,-0.23088 12.4117,6.471 -12.6425,26.80755 c -1.5089,3.19862 2.4284,3.75656 5.4476,3.75656 l 47.2938,0 c 3.0192,0 6.9628,-0.55794 5.4539,-3.75656 l -15.1697,-32.1491 c -1.5089,-3.19864 -2.4285,-6.54588 -5.4477,-6.54588 l -16.9606,0 c -3.0192,0 -3.9449,3.34724 -5.4538,6.54588 l -0.2809,0.59282 -11.5254,-6.00924 -3.2137,-39.16925 c 0.8198,0.18298 1.671,0.28081 2.546,0.28081 6.43,0 11.644,-5.21402 11.644,-11.64406 0,-6.43005 -5.214,-11.63783 -11.644,-11.63783 z m -33.4658,27.6063 5.691,0 -7.4819,15.83118 -5.5475,-2.89542 7.3384,-12.93576 z m 24.0058,12.68616 1.4165,17.33506 -7.7128,-4.02488 6.2963,-13.31018 z"
       id="path4176" />
    <g
       id="g4218"
       transform="translate(72.055766,-153.11307)">
      <path
         transform="translate(777.30005,186.87028)"
         d="M 210.3125,19.375 A 15.170142,15.170142 0 0 0 198,26.9375 L 64.5,258.15625 a 15.170142,15.170142 0 0 0 13.125,22.75 l 267,0 a 15.170142,15.170142 0 0 0 13.125,-22.75 L 224.25,26.9375 A 15.170142,15.170142 0 0 0 210.3125,19.375 z"
         id="path4124"
         style="fill:url(#radialGradient4225);fill-opacity:1;stroke:#000000;stroke-width:2.83100009;stroke-linecap:round;stroke-linejoin:round;stroke-miterlimit:4;stroke-opacity:1;stroke-dasharray:none;stroke-dashoffset:0"
         inkscape:original="M 211.125 34.53125 L 77.625 265.75 L 344.625 265.75 L 211.125 34.53125 z "
         inkscape:radius="15.168625"
         sodipodi:type="inkscape:offset" />
      <path
         inkscape:connector-curvature="0"
         id="path4130"
         d="m 989.11255,206.80182 a 15.170142,15.170142 0 0 0 -1.5,0.0312 15.170142,15.170142 0 0 0 -12.3125,7.5625 l -133.5,231.21875 a 15.170142,15.170142 0 0 0 13.125,22.75 l 267.00005,0 a 15.170142,15.170142 0 0 0 13.125,-22.75 L 1001.55,214.39552 a 15.170142,15.170142 0 0 0 -12.43745,-7.59375 z m -0.375,47.625 c 0.0134,-0.0214 0.15771,0.0299 0.0625,0.0625 0.0816,0.0359 0.23663,0.0998 0.625,0.1875 0.37691,0.0851 0.53894,0.0918 0.625,0.0937 -0.0683,-0.0667 0.0178,-0.0282 0.0625,0 -0.007,2.8e-4 -0.0541,1.9e-4 -0.0625,0 0.0526,0.0513 0.22083,0.1414 0.59375,0.34375 0.37292,0.20235 0.52252,0.2954 0.59375,0.3125 -0.005,-0.008 -0.0276,-0.0562 -0.0312,-0.0625 0.049,0.0235 0.12029,0.0839 0.0312,0.0625 0.0493,0.0727 0.13236,0.20205 0.40625,0.46875 0.30397,0.296 0.46666,0.40276 0.53125,0.4375 -0.003,-0.009 -0.0294,-0.0555 -0.0312,-0.0625 0.0397,0.0377 0.11199,0.10593 0.0312,0.0625 0.0284,0.0826 0.0903,0.23183 0.28125,0.5625 l 102.0313,176.75 c 0.1803,0.31253 0.2883,0.40523 0.3438,0.46875 0,-0.13819 0.1312,0.16042 0.031,0.0625 0.01,0.0834 0.032,0.21384 0.125,0.5625 0.095,0.35417 0.1527,0.48792 0.1875,0.5625 0.028,0.0266 0.061,0.1307 0,0 -0.026,-0.0251 -0.062,0.0507 -0.062,0.65625 0,0.40368 0.012,0.59044 0.031,0.65625 0.082,-0.17547 0.04,0.13856 0,0 -0.035,0.0746 -0.063,0.2137 -0.1563,0.5625 -0.093,0.34865 -0.1176,0.47911 -0.125,0.5625 0.1,-0.0979 -0.034,0.2007 -0.031,0.0625 -0.055,0.0631 -0.1627,0.1862 -0.3437,0.5 -0.1973,0.34189 -0.2298,0.49164 -0.25,0.5625 -0.029,0.0364 -0.049,0.0681 -0.031,0 -0.066,0.0443 -0.1719,0.14034 -0.4375,0.40625 -0.2657,0.26591 -0.362,0.3714 -0.4063,0.4375 0.1364,-0.0361 -0.1034,0.15089 -0.031,0.0312 -0.076,0.024 -0.235,0.0919 -0.5625,0.28125 -0.3494,0.20208 -0.4823,0.29383 -0.5312,0.34375 0.01,-6.7e-4 0.056,1.2e-4 0.062,0 -0.026,0.0164 -0.075,0.0359 -0.094,0.0312 -0.088,0.01 -0.2298,0.004 -0.5625,0.0937 -0.3525,0.0948 -0.4581,0.15267 -0.5313,0.1875 0.1317,0.0385 -0.1803,0.0659 -0.062,0 -0.08,-0.0169 -0.2284,-0.0316 -0.5937,-0.0312 l -204.09385,0 c -0.36532,-3.8e-4 -0.51379,0.0143 -0.59375,0.0312 0.11784,0.0659 -0.19418,0.0385 -0.0625,0 -0.0732,-0.0348 -0.17873,-0.0927 -0.53125,-0.1875 -0.33268,-0.0894 -0.47443,-0.0842 -0.5625,-0.0937 -0.0189,0.005 -0.068,-0.0149 -0.0937,-0.0312 0.006,1.2e-4 0.0542,-6.7e-4 0.0625,0 -0.049,-0.0499 -0.18179,-0.14167 -0.53125,-0.34375 -0.32747,-0.18936 -0.48691,-0.25724 -0.5625,-0.28125 0.0722,0.11964 -0.16762,-0.0674 -0.0312,-0.0312 -0.0443,-0.0661 -0.1406,-0.17159 -0.40625,-0.4375 -0.26565,-0.26591 -0.37136,-0.36192 -0.4375,-0.40625 0.0181,0.0681 -0.002,0.0364 -0.0312,0 -0.002,-10e-4 0.002,-0.03 0,-0.0312 -0.0243,-0.076 -0.0617,-0.2049 -0.25,-0.53125 -0.18104,-0.3138 -0.28844,-0.43694 -0.34375,-0.5 0.003,0.1382 -0.13121,-0.16042 -0.0312,-0.0625 -0.007,-0.0834 -0.0316,-0.21385 -0.125,-0.5625 -0.0934,-0.3488 -0.12126,-0.48795 -0.15625,-0.5625 -0.0404,0.13856 -0.0824,-0.17547 0,0 0.0192,-0.0658 0.0313,-0.25257 0.0312,-0.65625 -2e-5,-0.60552 -0.0363,-0.68133 -0.0625,-0.65625 -0.061,0.1307 -0.0278,0.0266 0,0 0.0348,-0.0746 0.0927,-0.20833 0.1875,-0.5625 0.0933,-0.34866 0.11765,-0.47911 0.125,-0.5625 -0.1,0.0979 0.0339,-0.20069 0.0312,-0.0625 0.0555,-0.0635 0.16348,-0.15622 0.34375,-0.46875 l 102.03125,-176.75 c 0.17872,-0.30954 0.22668,-0.45998 0.25,-0.53125 0.01,-0.0156 0.0183,-0.0195 0.0312,-0.0312 0.0615,-0.0436 0.15892,-0.12085 0.40625,-0.375 0.26708,-0.27445 0.4043,-0.41274 0.4375,-0.46875 -0.009,0.004 -0.0555,0.0291 -0.0625,0.0312 0.0325,-0.037 0.104,-0.10126 0.0625,-0.0312 0.0746,-0.029 0.20994,-0.0718 0.5,-0.25 0.2891,-0.17757 0.3775,-0.25953 0.4375,-0.3125 -0.13021,0.007 0.15347,-0.12466 0.0625,-0.0312 0.0791,-0.0102 0.20642,-0.0236 0.53125,-0.125 0.3416,-0.10665 0.49112,-0.1818 0.5625,-0.21875 -0.0575,-0.0117 -0.003,-0.0261 0.0312,-0.0312 -0.006,0.006 0.0164,0.0222 0,0.0312 0.0644,0.0104 0.20824,0.0155 0.53125,0 0.0311,-0.002 0.003,0.002 0.0312,0 0.36364,-0.0216 0.52325,-0.0414 0.59375,-0.0625 -0.0377,-0.0178 -0.0357,-0.0554 -0.0312,-0.0625 z"
         style="fill:url(#linearGradient4227);fill-opacity:1;stroke:#000000;stroke-width:2.83100009;stroke-linecap:round;stroke-linejoin:round;stroke-miterlimit:4;stroke-opacity:1;stroke-dasharray:none;stroke-dashoffset:0" />
      <path
         sodipodi:nodetypes="sscssccccccccccccccccccccsssssccccccccccssccsssccccssssccccccccc"
         inkscape:connector-curvature="0"
         style="fill:#000000;stroke:none"
         d="m 999.67231,318.4358 c -6.43008,0 -11.6441,5.20778 -11.6441,11.63783 0,2.35826 0.70427,4.55623 1.90948,6.38988 -0.30879,-0.095 -0.63893,-0.14976 -0.9797,-0.14976 l -24.18671,0 c -0.70509,0 -1.35563,0.21902 -1.89075,0.5928 -0.35296,0.17246 -0.65815,0.45473 -0.86738,0.82371 l -10.0154,17.66577 -0.84866,-0.44304 c -0.99083,-0.51673 -2.20396,-0.13594 -2.72069,0.8549 l -0.55537,1.0733 c -0.51673,0.99083 -0.13593,2.20396 0.8549,2.72069 l 0.74258,0.38689 c -0.23087,0.86567 0.13106,1.80787 0.94849,2.2714 l 3.23239,1.82836 c 0.89967,0.51016 2.01614,0.25568 2.6146,-0.55537 l 5.9094,3.08261 -0.23713,0.50545 c -0.57417,1.21427 -0.64287,2.5295 -0.29328,3.71912 l -14.80781,46.61994 c -0.33827,1.06506 0.24538,2.19523 1.31043,2.53349 l 6.627,2.10291 c 1.06506,0.33829 2.19523,-0.24537 2.53349,-1.31041 l 12.32425,-38.79483 6.6582,22.01514 0,16.19935 c 0,1.11748 0.90432,2.01556 2.0218,2.01556 l 7.63791,0 c 1.11748,0 2.01556,-0.89808 2.01556,-2.01556 l 0,-17.4973 c 0,-0.12017 -0.0113,-0.23514 -0.0312,-0.34944 -0.004,-0.18054 -0.0262,-0.36119 -0.0811,-0.54288 l -7.18238,-23.73743 c 0.38964,-0.37018 0.72933,-0.80219 0.99842,-1.29795 l 10.46469,5.46011 0.0874,1.03586 c 0.0913,1.11373 1.06406,1.93835 2.1778,1.84708 l 2.81429,-0.23088 12.41167,6.471 -12.64256,26.80755 c -1.5089,3.19862 2.42847,3.75656 5.44766,3.75656 l 47.2938,0 c 3.0192,0 6.9628,-0.55794 5.4539,-3.75656 l -15.1697,-32.1491 c -1.5089,-3.19864 -4.7316,-7.22756 -7.4477,-8.54588 -2.5205,-1.22335 -3.7207,-1.4671 -6.3464,-1.4671 -2.666,0 -3.4732,0.27431 -6.6142,1.4671 -2.8226,1.07186 -5.9449,5.34724 -7.4538,8.54588 l -0.2809,0.59282 -11.5255,-6.00924 -3.21364,-39.16925 c 0.81982,0.18298 1.67095,0.28081 2.54605,0.28081 6.42999,0 11.64399,-5.21402 11.64399,-11.64406 0,-6.43005 -5.214,-11.63783 -11.64399,-11.63783 z m -33.4658,27.6063 5.69099,0 -7.48191,15.83118 -5.54746,-2.89542 z m 24.00575,12.68616 1.4165,17.33506 -7.71279,-4.02488 z"
         id="path4216" />
      <path
         inkscape:connector-curvature="0"
         id="path4132"
         d="m 987.29961,205.40122 a 15.170142,15.170142 0 0 0 -12.3125,7.5625 l -105.84375,183.3125 c 76.06334,-10.58417 140.31904,-44.98701 190.18744,-82.6875 l -58.0937,-100.625 a 15.170142,15.170142 0 0 0 -13.93749,-7.5625 z"
         style="fill:url(#linearGradient4229);fill-opacity:1;stroke:none;filter:url(#filter3813)" />
      <path
         sodipodi:type="inkscape:offset"
         inkscape:radius="15.168625"
         inkscape:original="M 211.125 34.53125 L 77.625 265.75 L 344.625 265.75 L 211.125 34.53125 z "
         style="fill:none;stroke:#000000;stroke-width:2.83100009;stroke-linecap:round;stroke-linejoin:round;stroke-miterlimit:4;stroke-opacity:1;stroke-dasharray:none;stroke-dashoffset:0"
         id="path4134"
         d="M 210.3125,19.375 A 15.170142,15.170142 0 0 0 198,26.9375 L 64.5,258.15625 a 15.170142,15.170142 0 0 0 13.125,22.75 l 267,0 a 15.170142,15.170142 0 0 0 13.125,-22.75 L 224.25,26.9375 A 15.170142,15.170142 0 0 0 210.3125,19.375 z"
         transform="translate(777.30005,187.42141)" />
    </g>
    <g
       id="g4312"
       transform="translate(1174.6137,-353.76067)">
      <path
         sodipodi:type="inkscape:offset"
         inkscape:radius="15.168625"
         inkscape:original="M 211.125 34.53125 L 77.625 265.75 L 344.625 265.75 L 211.125 34.53125 z "
         style="fill:#000000;fill-opacity:1;stroke:#000000;stroke-width:10;stroke-linecap:round;stroke-linejoin:round;stroke-miterlimit:4;stroke-opacity:1;stroke-dasharray:none;stroke-dashoffset:0;filter:url(#filter4243)"
         id="path4231"
         d="M 210.3125,19.375 A 15.170142,15.170142 0 0 0 198,26.9375 L 64.5,258.15625 a 15.170142,15.170142 0 0 0 13.125,22.75 l 267,0 a 15.170142,15.170142 0 0 0 13.125,-22.75 L 224.25,26.9375 A 15.170142,15.170142 0 0 0 210.3125,19.375 z"
         transform="translate(160.92224,376.05104)" />
      <g
         id="g4247"
         transform="translate(-616.37783,188.88767)">
        <path
           transform="translate(777.30005,186.87028)"
           d="M 210.3125,19.375 A 15.170142,15.170142 0 0 0 198,26.9375 L 64.5,258.15625 a 15.170142,15.170142 0 0 0 13.125,22.75 l 267,0 a 15.170142,15.170142 0 0 0 13.125,-22.75 L 224.25,26.9375 A 15.170142,15.170142 0 0 0 210.3125,19.375 z"
           id="path4249"
           style="fill:url(#radialGradient4321);fill-opacity:1;stroke:#000000;stroke-width:2.83100009;stroke-linecap:round;stroke-linejoin:round;stroke-miterlimit:4;stroke-opacity:1;stroke-dasharray:none;stroke-dashoffset:0"
           inkscape:original="M 211.125 34.53125 L 77.625 265.75 L 344.625 265.75 L 211.125 34.53125 z "
           inkscape:radius="15.168625"
           sodipodi:type="inkscape:offset" />
        <path
           inkscape:connector-curvature="0"
           id="path4251"
           d="m 989.11255,206.80182 a 15.170142,15.170142 0 0 0 -1.5,0.0312 15.170142,15.170142 0 0 0 -12.3125,7.5625 l -133.5,231.21875 a 15.170142,15.170142 0 0 0 13.125,22.75 l 267.00005,0 a 15.170142,15.170142 0 0 0 13.125,-22.75 L 1001.55,214.39552 a 15.170142,15.170142 0 0 0 -12.43745,-7.59375 z m -0.375,47.625 c 0.0134,-0.0214 0.15771,0.0299 0.0625,0.0625 0.0816,0.0359 0.23663,0.0998 0.625,0.1875 0.37691,0.0851 0.53894,0.0918 0.625,0.0937 -0.0683,-0.0667 0.0178,-0.0282 0.0625,0 -0.007,2.8e-4 -0.0541,1.9e-4 -0.0625,0 0.0526,0.0513 0.22083,0.1414 0.59375,0.34375 0.37292,0.20235 0.52252,0.2954 0.59375,0.3125 -0.005,-0.008 -0.0276,-0.0562 -0.0312,-0.0625 0.049,0.0235 0.12029,0.0839 0.0312,0.0625 0.0493,0.0727 0.13236,0.20205 0.40625,0.46875 0.30397,0.296 0.46666,0.40276 0.53125,0.4375 -0.003,-0.009 -0.0294,-0.0555 -0.0312,-0.0625 0.0397,0.0377 0.11199,0.10593 0.0312,0.0625 0.0284,0.0826 0.0903,0.23183 0.28125,0.5625 l 102.0313,176.75 c 0.1803,0.31253 0.2883,0.40523 0.3438,0.46875 0,-0.13819 0.1312,0.16042 0.031,0.0625 0.01,0.0834 0.032,0.21384 0.125,0.5625 0.095,0.35417 0.1527,0.48792 0.1875,0.5625 0.028,0.0266 0.061,0.1307 0,0 -0.026,-0.0251 -0.062,0.0507 -0.062,0.65625 0,0.40368 0.012,0.59044 0.031,0.65625 0.082,-0.17547 0.04,0.13856 0,0 -0.035,0.0746 -0.063,0.2137 -0.1563,0.5625 -0.093,0.34865 -0.1176,0.47911 -0.125,0.5625 0.1,-0.0979 -0.034,0.2007 -0.031,0.0625 -0.055,0.0631 -0.1627,0.1862 -0.3437,0.5 -0.1973,0.34189 -0.2298,0.49164 -0.25,0.5625 -0.029,0.0364 -0.049,0.0681 -0.031,0 -0.066,0.0443 -0.1719,0.14034 -0.4375,0.40625 -0.2657,0.26591 -0.362,0.3714 -0.4063,0.4375 0.1364,-0.0361 -0.1034,0.15089 -0.031,0.0312 -0.076,0.024 -0.235,0.0919 -0.5625,0.28125 -0.3494,0.20208 -0.4823,0.29383 -0.5312,0.34375 0.01,-6.7e-4 0.056,1.2e-4 0.062,0 -0.026,0.0164 -0.075,0.0359 -0.094,0.0312 -0.088,0.01 -0.2298,0.004 -0.5625,0.0937 -0.3525,0.0948 -0.4581,0.15267 -0.5313,0.1875 0.1317,0.0385 -0.1803,0.0659 -0.062,0 -0.08,-0.0169 -0.2284,-0.0316 -0.5937,-0.0312 l -204.09385,0 c -0.36532,-3.8e-4 -0.51379,0.0143 -0.59375,0.0312 0.11784,0.0659 -0.19418,0.0385 -0.0625,0 -0.0732,-0.0348 -0.17873,-0.0927 -0.53125,-0.1875 -0.33268,-0.0894 -0.47443,-0.0842 -0.5625,-0.0937 -0.0189,0.005 -0.068,-0.0149 -0.0937,-0.0312 0.006,1.2e-4 0.0542,-6.7e-4 0.0625,0 -0.049,-0.0499 -0.18179,-0.14167 -0.53125,-0.34375 -0.32747,-0.18936 -0.48691,-0.25724 -0.5625,-0.28125 0.0722,0.11964 -0.16762,-0.0674 -0.0312,-0.0312 -0.0443,-0.0661 -0.1406,-0.17159 -0.40625,-0.4375 -0.26565,-0.26591 -0.37136,-0.36192 -0.4375,-0.40625 0.0181,0.0681 -0.002,0.0364 -0.0312,0 -0.002,-10e-4 0.002,-0.03 0,-0.0312 -0.0243,-0.076 -0.0617,-0.2049 -0.25,-0.53125 -0.18104,-0.3138 -0.28844,-0.43694 -0.34375,-0.5 0.003,0.1382 -0.13121,-0.16042 -0.0312,-0.0625 -0.007,-0.0834 -0.0316,-0.21385 -0.125,-0.5625 -0.0934,-0.3488 -0.12126,-0.48795 -0.15625,-0.5625 -0.0404,0.13856 -0.0824,-0.17547 0,0 0.0192,-0.0658 0.0313,-0.25257 0.0312,-0.65625 -2e-5,-0.60552 -0.0363,-0.68133 -0.0625,-0.65625 -0.061,0.1307 -0.0278,0.0266 0,0 0.0348,-0.0746 0.0927,-0.20833 0.1875,-0.5625 0.0933,-0.34866 0.11765,-0.47911 0.125,-0.5625 -0.1,0.0979 0.0339,-0.20069 0.0312,-0.0625 0.0555,-0.0635 0.16348,-0.15622 0.34375,-0.46875 l 102.03125,-176.75 c 0.17872,-0.30954 0.22668,-0.45998 0.25,-0.53125 0.01,-0.0156 0.0183,-0.0195 0.0312,-0.0312 0.0615,-0.0436 0.15892,-0.12085 0.40625,-0.375 0.26708,-0.27445 0.4043,-0.41274 0.4375,-0.46875 -0.009,0.004 -0.0555,0.0291 -0.0625,0.0312 0.0325,-0.037 0.104,-0.10126 0.0625,-0.0312 0.0746,-0.029 0.20994,-0.0718 0.5,-0.25 0.2891,-0.17757 0.3775,-0.25953 0.4375,-0.3125 -0.13021,0.007 0.15347,-0.12466 0.0625,-0.0312 0.0791,-0.0102 0.20642,-0.0236 0.53125,-0.125 0.3416,-0.10665 0.49112,-0.1818 0.5625,-0.21875 -0.0575,-0.0117 -0.003,-0.0261 0.0312,-0.0312 -0.006,0.006 0.0164,0.0222 0,0.0312 0.0644,0.0104 0.20824,0.0155 0.53125,0 0.0311,-0.002 0.003,0.002 0.0312,0 0.36364,-0.0216 0.52325,-0.0414 0.59375,-0.0625 -0.0377,-0.0178 -0.0357,-0.0554 -0.0312,-0.0625 z"
           style="fill:url(#linearGradient4323);fill-opacity:1;stroke:#000000;stroke-width:2.83100009;stroke-linecap:round;stroke-linejoin:round;stroke-miterlimit:4;stroke-opacity:1;stroke-dasharray:none;stroke-dashoffset:0" />
        <path
           sodipodi:nodetypes="sscssccccccccccccccccccccsssssccccccccccssccsssccccssssccccccccc"
           inkscape:connector-curvature="0"
           style="fill:#000000;stroke:none"
           d="m 999.67231,318.4358 c -6.43008,0 -11.6441,5.20778 -11.6441,11.63783 0,2.35826 0.70427,4.55623 1.90948,6.38988 -0.30879,-0.095 -0.63893,-0.14976 -0.9797,-0.14976 l -24.18671,0 c -0.70509,0 -1.35563,0.21902 -1.89075,0.5928 -0.35296,0.17246 -0.65815,0.45473 -0.86738,0.82371 l -10.0154,17.66577 -0.84866,-0.44304 c -0.99083,-0.51673 -2.20396,-0.13594 -2.72069,0.8549 l -0.55537,1.0733 c -0.51673,0.99083 -0.13593,2.20396 0.8549,2.72069 l 0.74258,0.38689 c -0.23087,0.86567 0.13106,1.80787 0.94849,2.2714 l 3.23239,1.82836 c 0.89967,0.51016 2.01614,0.25568 2.6146,-0.55537 l 5.9094,3.08261 -0.23713,0.50545 c -0.57417,1.21427 -0.64287,2.5295 -0.29328,3.71912 l -14.80781,46.61994 c -0.33827,1.06506 0.24538,2.19523 1.31043,2.53349 l 6.627,2.10291 c 1.06506,0.33829 2.19523,-0.24537 2.53349,-1.31041 l 12.32425,-38.79483 6.6582,22.01514 0,16.19935 c 0,1.11748 0.90432,2.01556 2.0218,2.01556 l 7.63791,0 c 1.11748,0 2.01556,-0.89808 2.01556,-2.01556 l 0,-17.4973 c 0,-0.12017 -0.0113,-0.23514 -0.0312,-0.34944 -0.004,-0.18054 -0.0262,-0.36119 -0.0811,-0.54288 l -7.18238,-23.73743 c 0.38964,-0.37018 0.72933,-0.80219 0.99842,-1.29795 l 10.46469,5.46011 0.0874,1.03586 c 0.0913,1.11373 1.06406,1.93835 2.1778,1.84708 l 2.81429,-0.23088 12.41167,6.471 -12.64256,26.80755 c -1.5089,3.19862 2.42847,3.75656 5.44766,3.75656 l 47.2938,0 c 3.0192,0 6.9628,-0.55794 5.4539,-3.75656 l -15.1697,-32.1491 c -1.5089,-3.19864 -4.7316,-7.22756 -7.4477,-8.54588 -2.5205,-1.22335 -3.7207,-1.4671 -6.3464,-1.4671 -2.666,0 -3.4732,0.27431 -6.6142,1.4671 -2.8226,1.07186 -5.9449,5.34724 -7.4538,8.54588 l -0.2809,0.59282 -11.5255,-6.00924 -3.21364,-39.16925 c 0.81982,0.18298 1.67095,0.28081 2.54605,0.28081 6.42999,0 11.64399,-5.21402 11.64399,-11.64406 0,-6.43005 -5.214,-11.63783 -11.64399,-11.63783 z m -33.4658,27.6063 5.69099,0 -7.48191,15.83118 -5.54746,-2.89542 z m 24.00575,12.68616 1.4165,17.33506 -7.71279,-4.02488 z"
           id="path4253" />
        <path
           inkscape:connector-curvature="0"
           id="path4255"
           d="m 987.29961,205.40122 a 15.170142,15.170142 0 0 0 -12.3125,7.5625 l -105.84375,183.3125 c 76.06334,-10.58417 140.31904,-44.98701 190.18744,-82.6875 l -58.0937,-100.625 a 15.170142,15.170142 0 0 0 -13.93749,-7.5625 z"
           style="fill:url(#linearGradient4325);fill-opacity:1;stroke:none;filter:url(#filter3813)" />
        <path
           sodipodi:type="inkscape:offset"
           inkscape:radius="15.168625"
           inkscape:original="M 211.125 34.53125 L 77.625 265.75 L 344.625 265.75 L 211.125 34.53125 z "
           style="fill:none;stroke:#000000;stroke-width:2.83100009;stroke-linecap:round;stroke-linejoin:round;stroke-miterlimit:4;stroke-opacity:1;stroke-dasharray:none;stroke-dashoffset:0"
           id="path4257"
           d="M 210.3125,19.375 A 15.170142,15.170142 0 0 0 198,26.9375 L 64.5,258.15625 a 15.170142,15.170142 0 0 0 13.125,22.75 l 267,0 a 15.170142,15.170142 0 0 0 13.125,-22.75 L 224.25,26.9375 A 15.170142,15.170142 0 0 0 210.3125,19.375 z"
           transform="translate(777.30005,187.42141)" />
      </g>
    </g>
    <path
       transform="matrix(1.3835155,0,0,1.3835155,737.69735,-312.61505)"
       d="m 550,788.79077 a 42.142857,42.142857 0 1 1 -84.28571,0 42.142857,42.142857 0 1 1 84.28571,0 z"
       sodipodi:ry="42.142857"
       sodipodi:rx="42.142857"
       sodipodi:cy="788.79077"
       sodipodi:cx="507.85715"
       id="path4329"
       style="fill:#000000;stroke:none"
       sodipodi:type="arc" />
    <rect
       ry="26.267025"
       rx="26.267025"
       transform="matrix(0.90402676,0.42747588,-0.42747588,0.90402676,0,0)"
       y="19.804731"
       x="1858.5389"
       height="194.20367"
       width="110.0565"
       id="rect4331"
       style="fill:#000000;fill-opacity:1;fill-rule:nonzero;stroke:none" />
    <rect
       ry="16.530073"
       rx="16.530073"
       y="809.9256"
       x="1249.0051"
       height="48.711399"
       width="154.19437"
       id="rect4333"
       style="fill:#000000;fill-opacity:1;fill-rule:nonzero;stroke:none" />
    <rect
       transform="matrix(-0.08168667,-0.99665806,0.99665806,-0.08168667,0,0)"
       style="fill:#000000;fill-opacity:1;fill-rule:nonzero;stroke:none"
       id="rect4335"
       width="237.5863"
       height="41.614746"
       x="-1166.3474"
       y="1312.9561"
       rx="10.101525"
       ry="10.101525" />
    <rect
       transform="matrix(-0.49327018,0.86987616,-0.86987616,-0.49327018,0,0)"
       style="fill:#000000;fill-opacity:1;fill-rule:nonzero;stroke:none"
       id="rect4337"
       width="145.59897"
       height="38.791992"
       x="83.154839"
       y="-1530.6483"
       rx="10.101525"
       ry="10.101525" />
    <rect
       transform="matrix(0.88666835,0.46240593,-0.46240593,0.88666835,0,0)"
       ry="10.101525"
       rx="10.101525"
       y="383.49396"
       x="1498.3815"
       height="26.263916"
       width="389.8837"
       id="rect4339"
       style="fill:#000000;fill-opacity:1;fill-rule:nonzero;stroke:none" />
    <rect
       transform="matrix(0.95308377,0.30270667,-0.30270667,0.95308377,0,0)"
       ry="10.101525"
       rx="10.101525"
       y="706.75635"
       x="1507.23"
       height="268.68808"
       width="55.032501"
       id="rect4341"
       style="fill:#000000;fill-opacity:1;fill-rule:nonzero;stroke:none" />
    <rect
       transform="matrix(0.95720101,-0.28942395,0.28942395,0.95720101,0,0)"
       ry="10.101525"
       rx="10.101525"
       y="1530.9672"
       x="1050.5236"
       height="155.56349"
       width="58.588848"
       id="rect4343"
       style="fill:#000000;fill-opacity:1;fill-rule:nonzero;stroke:none" />
    <rect
       ry="10.101525"
       rx="10.101525"
       y="1226.6233"
       x="1377.5303"
       height="107.81149"
       width="58.466309"
       id="rect4345"
       style="fill:#000000;fill-opacity:1;fill-rule:nonzero;stroke:none" />
    <path
       sodipodi:nodetypes="sssssssss"
       inkscape:connector-curvature="0"
       id="path4347"
       d="m 1727.2425,1114.6478 84.9436,0 c 15.1198,0 19.7355,16.784 27.2921,32.8025 l 75.9504,161.0004 c 7.5565,16.0184 -12.1723,18.8023 -27.2921,18.8023 l -236.8444,0 c -15.1198,0 -34.8486,-2.7839 -27.2921,-18.8023 l 75.9505,-161.0004 c 7.5565,-16.0185 12.1722,-32.8025 27.292,-32.8025 z"
       style="fill:#000000;fill-opacity:1;fill-rule:nonzero;stroke:none" />
  </g>
</svg>
